<?xml version="1.0" encoding="utf-8"?>
<!-- Generator: Adobe Illustrator 21.0.2, SVG Export Plug-In . SVG Version: 6.00 Build 0)  -->
<svg version="1.1" id="Calque_1" xmlns="http://www.w3.org/2000/svg" xmlns:xlink="http://www.w3.org/1999/xlink" x="0px" y="0px"
	 viewBox="0 0 237.1 121.3" style="enable-background:new 0 0 237.1 121.3;" xml:space="preserve">
<style type="text/css">
	.st0{fill:#D1515A;}
	.st1{opacity:0.25;fill:#D1515A;}
</style>
<g>
	<g id="_x37_e319840-739a-a0f1-f316-ea813584ba79" transform="matrix(2.8,0,0,2.8,30.62199562788011,167.12059412002563)">
		<path class="st0" d="M-5.8-19.2L-5.8-19.2c-1.5,0-2.7-0.5-3.6-1.5l0,0l0,0c-1-1-1.5-2.2-1.5-3.7l0,0l0,0c0-1.4,0.5-2.7,1.5-3.6
			l0,0l0,0c1-1,2.2-1.5,3.6-1.5l0,0l0,0c1.5,0,2.7,0.5,3.8,1.4l0,0l-1.4,1.5l0,0c-0.7-0.5-1.5-0.8-2.4-0.8l0,0l0,0
			c-0.9,0-1.7,0.3-2.2,0.9l0,0l0,0c-0.6,0.6-0.8,1.3-0.8,2.2l0,0l0,0c0,1,0.3,1.7,0.8,2.3l0,0l0,0c0.6,0.6,1.3,0.8,2.2,0.8l0,0l0,0
			c0.7,0,1.3-0.1,1.7-0.4l0,0v-1.8l-1.4,0v-1.9h3.4v4.8l0,0C-3.1-19.7-4.3-19.2-5.8-19.2L-5.8-19.2z M1.6-26.1v0.8l0,0
			c0.5-0.5,1.1-0.8,1.8-0.8l0,0l0,0c0.2,0,0.4,0,0.6,0l0,0l-0.3,1.9l0,0c-0.2-0.2-0.5-0.3-0.9-0.3l0,0l0,0c-0.5,0-0.9,0.4-1.2,1l0,0
			v4.2h-1.9v-6.6L1.6-26.1z M8.4-19.2L8.4-19.2c-1,0-1.8-0.3-2.5-1l0,0l0,0c-0.7-0.7-1-1.5-1-2.5l0,0l0,0c0-1,0.3-1.8,1-2.5l0,0l0,0
			c0.7-0.7,1.5-1,2.5-1l0,0l0,0c1,0,1.8,0.3,2.5,1l0,0l0,0c0.7,0.7,1,1.5,1,2.5l0,0l0,0c0,1-0.3,1.8-1,2.5l0,0l0,0
			C10.2-19.5,9.4-19.2,8.4-19.2L8.4-19.2z M8.4-20.8L8.4-20.8L8.4-20.8c0.5,0,0.9-0.2,1.3-0.5l0,0l0,0c0.3-0.3,0.5-0.8,0.5-1.3l0,0
			l0,0c0-0.5-0.2-1-0.5-1.3l0,0l0,0c-0.3-0.4-0.8-0.5-1.3-0.5l0,0l0,0c-0.5,0-0.9,0.2-1.3,0.5l0,0l0,0c-0.3,0.3-0.5,0.8-0.5,1.3l0,0
			l0,0c0,0.5,0.2,1,0.5,1.3l0,0l0,0C7.4-21,7.9-20.8,8.4-20.8z M17.3-21.7L17.3-21.7v-4.4h1.9v6.8h-1.9v-0.6l0,0
			c-0.5,0.4-1,0.6-1.6,0.6l0,0l0,0c-0.9,0-1.5-0.3-2-0.8l0,0l0,0c-0.5-0.5-0.7-1.1-0.7-1.8l0,0v-4.2h1.9v3.8l0,0
			c0,0.5,0.1,0.8,0.3,1.1l0,0l0,0c0.2,0.3,0.6,0.4,1,0.4l0,0l0,0C16.7-20.9,17-21.2,17.3-21.7z M22.7-16.4l-1.9,0v-9.5l1.9-0.2v0.5
			l0,0c0.5-0.4,1-0.5,1.5-0.5l0,0l0,0c1,0,1.9,0.3,2.5,1l0,0l0,0c0.6,0.7,0.9,1.5,0.9,2.4l0,0l0,0c0,0.9-0.3,1.7-0.9,2.4l0,0l0,0
			c-0.6,0.7-1.4,1-2.5,1l0,0l0,0c-0.7,0-1.2-0.2-1.5-0.6l0,0V-16.4z M22.7-23.3L22.7-23.3v1.1l0,0c0.1,0.8,0.6,1.2,1.4,1.4l0,0l0,0
			c1.1-0.1,1.7-0.7,1.8-1.7l0,0l0,0c0-1.3-0.7-1.9-1.8-2l0,0l0,0C23.3-24.4,22.8-24,22.7-23.3z M32.1-19.2L32.1-19.2
			c-1,0-1.8-0.3-2.5-1l0,0l0,0c-0.7-0.7-1-1.5-1-2.5l0,0l0,0c0-1,0.3-1.8,1-2.5l0,0l0,0c0.7-0.7,1.5-1,2.5-1l0,0l0,0
			c1,0,1.8,0.3,2.5,1l0,0l0,0c0.7,0.7,1,1.5,1,2.5l0,0l0,0c0,1-0.3,1.8-1,2.5l0,0l0,0C33.9-19.5,33.1-19.2,32.1-19.2L32.1-19.2z
			 M32.1-20.8L32.1-20.8L32.1-20.8c0.5,0,0.9-0.2,1.3-0.5l0,0l0,0c0.3-0.3,0.5-0.8,0.5-1.3l0,0l0,0c0-0.5-0.2-1-0.5-1.3l0,0l0,0
			c-0.3-0.4-0.7-0.5-1.3-0.5l0,0l0,0c-0.5,0-0.9,0.2-1.3,0.5l0,0l0,0c-0.3,0.3-0.5,0.8-0.5,1.3l0,0l0,0c0,0.5,0.2,1,0.5,1.3l0,0l0,0
			C31.2-21,31.6-20.8,32.1-20.8z M38.8-23.6L38.8-23.6v4.4h-1.9v-6.6l1.9-0.2v0.6l0,0c0.4-0.4,1-0.6,1.6-0.6l0,0l0,0
			c0.9,0,1.5,0.3,2,0.8l0,0l0,0c0.5-0.5,1.3-0.8,2.2-0.8l0,0l0,0c0.9,0,1.5,0.3,2,0.8l0,0l0,0c0.5,0.5,0.7,1.1,0.7,1.8l0,0v4.2h-1.9
			V-23l0,0c0-0.5-0.1-0.8-0.3-1.1l0,0l0,0c-0.2-0.2-0.5-0.4-1-0.4l0,0l0,0c-0.4,0-0.7,0.3-1,0.8l0,0l0,0c0,0.1,0,0.3,0,0.4l0,0v4
			h-1.9V-23l0,0c0-0.5-0.1-0.8-0.3-1.1l0,0l0,0c-0.2-0.2-0.5-0.4-1-0.4l0,0l0,0C39.5-24.4,39.1-24.1,38.8-23.6z M49.9-24.1l-0.8-1.2
			l0,0c0.9-0.5,1.9-0.8,3-0.8l0,0l0,0c0.8,0,1.5,0.2,1.9,0.7l0,0l0,0c0.5,0.5,0.7,1.1,0.7,2.1l0,0v4.1h-1.9v-0.5l0,0
			c-0.6,0.4-1.1,0.5-1.5,0.5l0,0l0,0c-0.9,0-1.6-0.2-2-0.6l0,0l0,0c-0.5-0.4-0.7-0.9-0.7-1.6l0,0l0,0c0-0.6,0.2-1.2,0.7-1.7l0,0l0,0
			c0.4-0.5,1.1-0.8,2.1-0.8l0,0l0,0c0.4,0,1,0.1,1.5,0.4l0,0v-0.2l0,0c0-0.5-0.4-0.8-1.1-0.8l0,0l0,0C51-24.5,50.4-24.4,49.9-24.1
			L49.9-24.1z M52.9-21.3L52.9-21.3v-0.8l0,0c-0.2-0.4-0.6-0.5-1.3-0.5l0,0l0,0c-0.8,0.1-1.3,0.4-1.3,1l0,0l0,0
			c0,0.5,0.5,0.8,1.3,0.9l0,0l0,0C52.3-20.7,52.7-20.9,52.9-21.3z M58.5-23.6L58.5-23.6v4.3h-1.9v-6.6l1.9-0.2v0.6l0,0
			c0.5-0.4,1-0.6,1.6-0.6l0,0l0,0c0.9,0,1.5,0.3,2,0.8l0,0l0,0c0.5,0.5,0.7,1.1,0.7,1.8l0,0v4.2h-1.9V-23l0,0c0-0.5-0.1-0.8-0.3-1.1
			l0,0l0,0c-0.2-0.2-0.6-0.4-1-0.4l0,0l0,0C59.1-24.4,58.7-24.1,58.5-23.6z M66.3-19.2h-1.9v-6.8h1.9V-19.2z M64.3-27.7L64.3-27.7
			L64.3-27.7c0,0.3,0.1,0.5,0.3,0.7l0,0l0,0c0.2,0.2,0.4,0.3,0.8,0.3l0,0l0,0c0.3,0,0.6-0.1,0.8-0.3l0,0l0,0
			c0.2-0.2,0.3-0.4,0.3-0.7l0,0l0,0c0-0.3-0.1-0.5-0.3-0.7l0,0l0,0c-0.2-0.2-0.4-0.3-0.8-0.3l0,0l0,0c-0.3,0-0.6,0.1-0.7,0.3l0,0
			l0,0C64.4-28.2,64.3-28,64.3-27.7z M68.8-24.1l-0.8-1.2l0,0c0.9-0.5,1.9-0.8,3-0.8l0,0l0,0c0.8,0,1.5,0.2,1.9,0.7l0,0l0,0
			c0.5,0.5,0.7,1.1,0.7,2.1l0,0v4.1h-1.9v-0.5l0,0c-0.6,0.4-1.1,0.5-1.5,0.5l0,0l0,0c-0.9,0-1.6-0.2-2.1-0.6l0,0l0,0
			c-0.5-0.4-0.7-0.9-0.7-1.6l0,0l0,0c0-0.6,0.2-1.2,0.7-1.7l0,0l0,0c0.4-0.5,1.1-0.8,2.1-0.8l0,0l0,0c0.4,0,0.9,0.1,1.5,0.4l0,0
			v-0.2l0,0c0-0.5-0.4-0.8-1.1-0.8l0,0l0,0C69.9-24.5,69.3-24.4,68.8-24.1L68.8-24.1z M71.8-21.3L71.8-21.3v-0.8l0,0
			c-0.2-0.4-0.6-0.5-1.3-0.5l0,0l0,0c-0.8,0.1-1.3,0.4-1.3,1l0,0l0,0c0,0.5,0.5,0.8,1.3,0.9l0,0l0,0C71.2-20.7,71.7-20.9,71.8-21.3z
			"/>
	</g>
	
		<g id="_x34_cb061db-73fa-16fe-1d0a-15980590225e_1_" transform="matrix(0.2931737713407769,0,0,0.2931737713407769,106.0239289062273,82.12728504171139)">
		<g>
			<path class="st1" d="M42.8-29.3c33.6,0,65.1-12.9,88.8-36.6c23.7-23.7,36.6-55.2,36.6-88.8s-12.9-65.1-36.6-88.8
				c-23.7-23.7-55.2-36.6-88.8-36.6s-65.1,12.9-88.8,36.6c-23.7,23.7-36.6,55.2-36.6,88.8S-69.7-89.6-46-65.9S9.2-29.3,42.8-29.3z
				 M50-50.6c-2.4,0.3-4.8,0.3-7.2,0.3c-3.3,0-6.6-0.3-9.9-0.6C22.1-67.7,14-85.7,9.2-104.6h53.1c1.8,4.5,5.1,8.7,9,11.4
				C66.2-78.2,59-64.1,50-50.6z M78.5-56.6c5.7-10.5,10.2-21,13.8-32.1c8.7-1.8,15.6-7.8,18.9-15.9h23.1
				C122.3-82.7,102.2-65.6,78.5-56.6z M146.9-154.7c0,9.9-1.5,19.5-3.9,28.8h-32.4c-1.8-3.9-4.8-7.5-8.4-10.2
				c0.6-6.6,0.9-13.2,0.9-19.8c0-9.3-0.6-18.6-1.8-27.6h41.4C145.7-174.5,146.9-164.6,146.9-154.7z M134.3-204.8H97.7
				c-3.9-16.5-9.6-32.1-17.4-47.1C103.1-243.2,122.3-226.1,134.3-204.8z M82.1-155.9c0,5.1-0.3,10.2-0.6,15.3
				c-8.4,1.8-15.3,7.2-18.6,14.7H5c-1.2-9-2.1-18.3-2.1-27.3c0-5.7,0.3-11.4,0.9-17.1c7.8-1.5,14.1-6.6,18-13.2h58.5
				C81.5-174.5,82.1-165.2,82.1-155.9L82.1-155.9z M35-258.5c2.7-0.3,5.4-0.3,7.8-0.3c3,0,6,0,9,0.3c10.8,16.8,18.9,34.8,23.7,53.7
				H23.3c-1.8-5.1-5.1-9.6-9.3-12.9C19.4-232.1,26.3-245.6,35-258.5L35-258.5z M6.5-252.5c-5.1,9.6-9.6,19.8-13.2,30
				c-9.3,1.8-16.8,8.7-19.8,17.4h-21.9C-36.7-226.4-17.2-243.5,6.5-252.5z M-61.3-154.7c0-9.9,1.5-19.8,4.2-28.8h32.7
				c1.8,3.3,4.5,6.3,7.5,8.7c-0.6,7.2-1.2,14.4-1.2,21.6c0,9.3,0.6,18.3,1.8,27.3h-40.8C-60.1-135.2-61.3-144.8-61.3-154.7z
				 M-12.7-104.9c3.9,16.2,9.6,32.1,17.4,47.1c-22.8-9-41.7-25.8-53.4-47.1H-12.7z"/>
		</g>
	</g>
</g>
</svg>
