<?xml version="1.0" encoding="utf-8"?>
<!-- Generator: Adobe Illustrator 21.0.2, SVG Export Plug-In . SVG Version: 6.00 Build 0)  -->
<svg version="1.1" id="Calque_1" xmlns="http://www.w3.org/2000/svg" xmlns:xlink="http://www.w3.org/1999/xlink" x="0px" y="0px"
	 viewBox="0 0 485 78" style="enable-background:new 0 0 485 78;" xml:space="preserve">
<style type="text/css">
	.st0{fill:#091F43;}
</style>
<g>
	
		<g id="_x33_5fa3215-a46c-2dc7-0ca7-44149903aade" transform="matrix(4.569687698175228,0,0,4.569687698175228,96.32992012448554,-2.2310693714669583)">
		<path class="st0" d="M5.4,12.7L5.4,12.7c-1.5,0-2.7-0.5-3.7-1.5l0,0l0,0c-1-1-1.5-2.2-1.5-3.7l0,0l0,0c0-1.4,0.5-2.7,1.5-3.6l0,0
			l0,0c1-1,2.2-1.5,3.7-1.5l0,0l0,0c1.5,0,2.7,0.5,3.8,1.4l0,0L7.8,5.3l0,0C7.1,4.7,6.3,4.5,5.4,4.5l0,0l0,0c-0.9,0-1.7,0.3-2.2,0.9
			l0,0l0,0C2.6,5.9,2.3,6.6,2.3,7.5l0,0l0,0c0,1,0.3,1.7,0.8,2.3l0,0l0,0c0.6,0.6,1.3,0.8,2.2,0.8l0,0l0,0c0.7,0,1.3-0.1,1.7-0.4
			l0,0V8.4l-1.4,0V6.5h3.4v4.8l0,0C8.1,12.2,6.9,12.7,5.4,12.7L5.4,12.7z M12.8,5.8v0.8l0,0c0.5-0.5,1.1-0.8,1.8-0.8l0,0l0,0
			c0.2,0,0.4,0,0.6,0l0,0L15,7.8l0,0c-0.2-0.2-0.5-0.3-0.9-0.3l0,0l0,0c-0.5,0-0.9,0.4-1.2,1l0,0v4.2h-1.9V6L12.8,5.8z M19.6,12.7
			L19.6,12.7c-1,0-1.8-0.3-2.5-1l0,0l0,0c-0.7-0.7-1-1.5-1-2.5l0,0l0,0c0-1,0.3-1.8,1-2.5l0,0l0,0c0.7-0.7,1.5-1,2.5-1l0,0l0,0
			c1,0,1.8,0.3,2.5,1l0,0l0,0c0.7,0.7,1,1.5,1,2.5l0,0l0,0c0,1-0.3,1.8-1,2.5l0,0l0,0C21.4,12.4,20.6,12.7,19.6,12.7L19.6,12.7z
			 M19.6,11.1L19.6,11.1L19.6,11.1c0.5,0,0.9-0.2,1.3-0.5l0,0l0,0c0.3-0.3,0.5-0.8,0.5-1.3l0,0l0,0c0-0.5-0.2-1-0.5-1.3l0,0l0,0
			c-0.3-0.4-0.8-0.5-1.3-0.5l0,0l0,0c-0.5,0-0.9,0.2-1.3,0.5l0,0l0,0c-0.3,0.3-0.5,0.8-0.5,1.3l0,0l0,0c0,0.5,0.2,1,0.5,1.3l0,0l0,0
			C18.7,10.9,19.1,11.1,19.6,11.1z M28.5,10.2L28.5,10.2V5.8h1.9v6.8h-1.9V12l0,0c-0.5,0.4-1,0.6-1.6,0.6l0,0l0,0
			c-0.9,0-1.5-0.3-2-0.8l0,0l0,0c-0.5-0.5-0.7-1.1-0.7-1.8l0,0V5.8h1.9v3.8l0,0c0,0.5,0.1,0.8,0.3,1.1l0,0l0,0
			c0.2,0.3,0.6,0.4,1,0.4l0,0l0,0C27.9,11,28.2,10.8,28.5,10.2z M34,15.5l-1.9,0V6L34,5.8v0.6l0,0c0.5-0.4,1-0.6,1.5-0.6l0,0l0,0
			c1,0,1.9,0.3,2.5,1l0,0l0,0c0.6,0.7,0.9,1.5,0.9,2.4l0,0l0,0c0,0.9-0.3,1.7-0.9,2.4l0,0l0,0c-0.6,0.7-1.4,1-2.5,1l0,0l0,0
			c-0.7,0-1.2-0.2-1.5-0.6l0,0V15.5z M34,8.6L34,8.6v1.1l0,0c0.1,0.8,0.6,1.2,1.4,1.4l0,0l0,0c1.1-0.1,1.7-0.7,1.8-1.7l0,0l0,0
			c0-1.3-0.7-1.9-1.8-2l0,0l0,0C34.5,7.5,34.1,7.9,34,8.6z M43.3,12.7L43.3,12.7c-1,0-1.8-0.3-2.5-1l0,0l0,0c-0.7-0.7-1-1.5-1-2.5
			l0,0l0,0c0-1,0.3-1.8,1-2.5l0,0l0,0c0.7-0.7,1.5-1,2.5-1l0,0l0,0c1,0,1.8,0.3,2.5,1l0,0l0,0c0.7,0.7,1,1.5,1,2.5l0,0l0,0
			c0,1-0.3,1.8-1,2.5l0,0l0,0C45.2,12.4,44.3,12.7,43.3,12.7L43.3,12.7z M43.3,11.1L43.3,11.1L43.3,11.1c0.5,0,0.9-0.2,1.3-0.5l0,0
			l0,0c0.3-0.3,0.5-0.8,0.5-1.3l0,0l0,0c0-0.5-0.2-1-0.5-1.3l0,0l0,0c-0.3-0.4-0.7-0.5-1.3-0.5l0,0l0,0c-0.5,0-0.9,0.2-1.3,0.5l0,0
			l0,0c-0.3,0.3-0.5,0.8-0.5,1.3l0,0l0,0c0,0.5,0.2,1,0.5,1.3l0,0l0,0C42.4,10.9,42.8,11.1,43.3,11.1z M50,8.3L50,8.3v4.4h-1.9V6
			L50,5.8v0.6l0,0c0.4-0.4,1-0.6,1.6-0.6l0,0l0,0c0.9,0,1.5,0.3,2,0.8l0,0l0,0c0.5-0.5,1.3-0.8,2.2-0.8l0,0l0,0c0.9,0,1.5,0.3,2,0.8
			l0,0l0,0c0.5,0.5,0.7,1.1,0.7,1.8l0,0v4.2h-1.9V8.9l0,0c0-0.5-0.1-0.8-0.3-1.1l0,0l0,0c-0.2-0.2-0.5-0.4-1-0.4l0,0l0,0
			c-0.4,0-0.7,0.3-1,0.7l0,0l0,0c0,0.1,0,0.3,0,0.4l0,0v4h-1.9V8.9l0,0c0-0.5-0.1-0.8-0.3-1.1l0,0l0,0c-0.2-0.2-0.5-0.4-1-0.4l0,0
			l0,0C50.7,7.5,50.3,7.8,50,8.3z M61.1,7.8l-0.8-1.2l0,0c0.9-0.5,1.9-0.8,3-0.8l0,0l0,0c0.8,0,1.5,0.2,1.9,0.7l0,0l0,0
			c0.5,0.5,0.7,1.1,0.7,2l0,0v4.1h-1.9v-0.5l0,0c-0.6,0.4-1.1,0.5-1.5,0.5l0,0l0,0c-0.9,0-1.6-0.2-2-0.6l0,0l0,0
			c-0.5-0.4-0.7-0.9-0.7-1.6l0,0l0,0c0-0.6,0.2-1.2,0.7-1.7l0,0l0,0C61,8.3,61.7,8,62.6,8l0,0l0,0c0.4,0,1,0.1,1.5,0.4l0,0V8.2l0,0
			c0-0.5-0.4-0.8-1.1-0.8l0,0l0,0C62.2,7.4,61.6,7.5,61.1,7.8L61.1,7.8z M64.2,10.6L64.2,10.6V9.8l0,0c-0.2-0.4-0.6-0.5-1.3-0.5l0,0
			l0,0c-0.8,0.1-1.3,0.4-1.3,1l0,0l0,0c0,0.5,0.5,0.8,1.3,0.9l0,0l0,0C63.5,11.2,64,11,64.2,10.6z M69.7,8.3L69.7,8.3v4.3h-1.9V6
			l1.9-0.2v0.6l0,0c0.5-0.4,1-0.6,1.6-0.6l0,0l0,0c0.9,0,1.5,0.3,2,0.8l0,0l0,0C73.8,7.1,74,7.8,74,8.4l0,0v4.2h-1.9V8.9l0,0
			c0-0.5-0.1-0.8-0.3-1.1l0,0l0,0c-0.2-0.2-0.6-0.4-1-0.4l0,0l0,0C70.3,7.5,70,7.8,69.7,8.3z M77.5,12.7h-1.9V5.8h1.9V12.7z
			 M75.5,4.2L75.5,4.2L75.5,4.2c0,0.3,0.1,0.5,0.3,0.7l0,0l0,0c0.2,0.2,0.4,0.3,0.8,0.3l0,0l0,0c0.3,0,0.6-0.1,0.8-0.3l0,0l0,0
			c0.2-0.2,0.3-0.4,0.3-0.7l0,0l0,0c0-0.3-0.1-0.5-0.3-0.7l0,0l0,0c-0.2-0.2-0.4-0.3-0.8-0.3l0,0l0,0c-0.3,0-0.6,0.1-0.7,0.3l0,0
			l0,0C75.6,3.7,75.5,3.9,75.5,4.2z M80.1,7.8l-0.8-1.2l0,0c0.9-0.5,1.9-0.8,3-0.8l0,0l0,0c0.8,0,1.5,0.2,1.9,0.7l0,0l0,0
			C84.7,7,85,7.7,85,8.6l0,0v4.1h-1.9v-0.5l0,0c-0.6,0.4-1.1,0.5-1.5,0.5l0,0l0,0c-0.9,0-1.6-0.2-2.1-0.6l0,0l0,0
			c-0.5-0.4-0.7-0.9-0.7-1.6l0,0l0,0c0-0.6,0.2-1.2,0.7-1.7l0,0l0,0C79.9,8.3,80.6,8,81.6,8l0,0l0,0c0.4,0,0.9,0.1,1.5,0.4l0,0V8.2
			l0,0c0-0.5-0.4-0.8-1.1-0.8l0,0l0,0C81.2,7.4,80.5,7.5,80.1,7.8L80.1,7.8z M83.1,10.6L83.1,10.6V9.8l0,0c-0.2-0.4-0.6-0.5-1.3-0.5
			l0,0l0,0c-0.8,0.1-1.3,0.4-1.3,1l0,0l0,0c0,0.5,0.5,0.8,1.3,0.9l0,0l0,0C82.5,11.2,82.9,11,83.1,10.6z"/>
	</g>
	
		<g id="c3a0a99d-5b99-a49f-d46f-4168a2d07e26" transform="matrix(0.9288891262478298,0,0,0.9288891262478298,183.17781124538936,-199.52452538383787)">
		<g>
			<path class="st0" d="M-155,298.8c11.2,0,21.7-4.3,29.6-12.2c7.9-7.9,12.2-18.4,12.2-29.6c0-11.2-4.3-21.7-12.2-29.6
				c-7.9-7.9-18.4-12.2-29.6-12.2s-21.7,4.3-29.6,12.2c-7.9,7.9-12.2,18.4-12.2,29.6s4.3,21.7,12.2,29.6S-166.2,298.8-155,298.8z
				 M-152.6,291.7c-0.8,0.1-1.6,0.1-2.4,0.1c-1.1,0-2.2-0.1-3.3-0.2c-3.6-5.6-6.3-11.6-7.9-17.9h17.7c0.6,1.5,1.7,2.9,3,3.8
				C-147.2,282.5-149.6,287.2-152.6,291.7z M-143.1,289.7c1.9-3.5,3.4-7,4.6-10.7c2.9-0.6,5.2-2.6,6.3-5.3h7.7
				C-128.5,281-135.2,286.7-143.1,289.7z M-120.3,257c0,3.3-0.5,6.5-1.3,9.6h-10.8c-0.6-1.3-1.6-2.5-2.8-3.4
				c0.2-2.2,0.3-4.4,0.3-6.6c0-3.1-0.2-6.2-0.6-9.2h13.8C-120.7,250.4-120.3,253.7-120.3,257z M-124.5,240.3h-12.2
				c-1.3-5.5-3.2-10.7-5.8-15.7C-134.9,227.5-128.5,233.2-124.5,240.3z M-141.9,256.6c0,1.7-0.1,3.4-0.2,5.1
				c-2.8,0.6-5.1,2.4-6.2,4.9h-19.3c-0.4-3-0.7-6.1-0.7-9.1c0-1.9,0.1-3.8,0.3-5.7c2.6-0.5,4.7-2.2,6-4.4h19.5
				C-142.1,250.4-141.9,253.5-141.9,256.6L-141.9,256.6z M-157.6,222.4c0.9-0.1,1.8-0.1,2.6-0.1c1,0,2,0,3,0.1
				c3.6,5.6,6.3,11.6,7.9,17.9h-17.4c-0.6-1.7-1.7-3.2-3.1-4.3C-162.8,231.2-160.5,226.7-157.6,222.4L-157.6,222.4z M-167.1,224.4
				c-1.7,3.2-3.2,6.6-4.4,10c-3.1,0.6-5.6,2.9-6.6,5.8h-7.3C-181.5,233.1-175,227.4-167.1,224.4z M-189.7,257c0-3.3,0.5-6.6,1.4-9.6
				h10.9c0.6,1.1,1.5,2.1,2.5,2.9c-0.2,2.4-0.4,4.8-0.4,7.2c0,3.1,0.2,6.1,0.6,9.1h-13.6C-189.3,263.5-189.7,260.3-189.7,257z
				 M-173.5,273.6c1.3,5.4,3.2,10.7,5.8,15.7c-7.6-3-13.9-8.6-17.8-15.7H-173.5z"/>
		</g>
	</g>
</g>
</svg>
