<?xml version="1.0" encoding="utf-8"?>
<!-- Generator: Adobe Illustrator 21.0.2, SVG Export Plug-In . SVG Version: 6.00 Build 0)  -->
<svg version="1.1" id="Calque_1" xmlns="http://www.w3.org/2000/svg" xmlns:xlink="http://www.w3.org/1999/xlink" x="0px" y="0px"
	 viewBox="0 0 24 24" style="enable-background:new 0 0 24 24;" xml:space="preserve">
<style type="text/css">
	.st0{fill:#EFEFF3;}
</style>
<path class="st0" d="M19.3,14.5l-1-1.7c-0.2-0.4-0.4-1.1-0.4-1.5V8.8c0-2.4-1.4-4.4-3.4-5.3C14,2.6,13.1,2,12,2
	c-1.1,0-2.1,0.6-2.6,1.5c-1.9,1-3.3,3-3.3,5.3v2.5c0,0.4-0.2,1.1-0.4,1.5l-1,1.7c-0.4,0.7-0.5,1.4-0.2,2.1C4.7,17.2,5.3,17.8,6,18
	c1.9,0.7,4,1,6,1c2,0,4.1-0.3,6-1c0.7-0.2,1.2-0.8,1.5-1.5C19.8,15.9,19.7,15.1,19.3,14.5z"/>
<path class="st0" d="M14.8,20c-0.4,1.2-1.5,2-2.8,2c-0.8,0-1.6-0.3-2.1-0.9c-0.3-0.3-0.6-0.7-0.7-1.1c0.1,0,0.3,0,0.4,0
	c0.2,0,0.5,0.1,0.7,0.1c0.6,0.1,1.2,0.1,1.7,0.1c0.6,0,1.1,0,1.7-0.1c0.2,0,0.4,0,0.6-0.1C14.5,20,14.7,20,14.8,20z"/>
</svg>
