<?xml version="1.0" encoding="utf-8"?>
<!-- Generator: Adobe Illustrator 21.0.2, SVG Export Plug-In . SVG Version: 6.00 Build 0)  -->
<svg version="1.1" id="Calque_1" xmlns="http://www.w3.org/2000/svg" xmlns:xlink="http://www.w3.org/1999/xlink" x="0px" y="0px"
	 viewBox="0 0 24 24" style="enable-background:new 0 0 24 24;" xml:space="preserve">
<style type="text/css">
	.st0{fill:#292D32;stroke:#292D32;stroke-width:1.5;stroke-linecap:round;stroke-linejoin:round;}
</style>
<path class="st0" d="M12.2,10.9c-0.1,0-0.2,0-0.3,0c-2.4-0.1-4.3-2-4.3-4.4C7.6,4,9.5,2,12,2c2.4,0,4.4,2,4.4,4.4
	C16.4,8.8,14.5,10.8,12.2,10.9z"/>
<path class="st0" d="M7.2,14.6c-2.4,1.6-2.4,4.3,0,5.9c2.8,1.8,7.3,1.8,10,0c2.4-1.6,2.4-4.3,0-5.9C14.4,12.7,9.9,12.7,7.2,14.6z"/>
</svg>
