<?xml version="1.0" encoding="utf-8"?>
<!-- Generator: Adobe Illustrator 21.0.2, SVG Export Plug-In . SVG Version: 6.00 Build 0)  -->
<svg version="1.1" id="Calque_1" xmlns="http://www.w3.org/2000/svg" xmlns:xlink="http://www.w3.org/1999/xlink" x="0px" y="0px"
	 viewBox="0 0 24 24" style="enable-background:new 0 0 24 24;" xml:space="preserve">
<style type="text/css">
	.st0{fill:#292D32;}
</style>
<path class="st0" d="M12,2C9.4,2,7.2,4.1,7.2,6.7c0,2.6,2,4.7,4.6,4.7c0.1,0,0.2,0,0.2,0c0,0,0,0,0,0c0,0,0,0,0,0
	c2.6-0.1,4.6-2.2,4.6-4.7C16.8,4.1,14.6,2,12,2z"/>
<path class="st0" d="M17.1,14.1c-2.8-1.9-7.3-1.9-10.1,0c-1.3,0.9-2,2-2,3.2c0,1.2,0.7,2.4,2,3.2C8.3,21.5,10.2,22,12,22
	s3.7-0.5,5.1-1.4c1.3-0.9,2-2,2-3.2C19,16.1,18.3,15,17.1,14.1z"/>
</svg>
