<svg id="Calque_1" data-name="Calque 1" xmlns="http://www.w3.org/2000/svg" width="8.4667mm" height="8.4667mm" viewBox="0 0 24 24"><defs><style>.cls-1{fill:#292d32;}</style></defs><title>edit</title><path class="cls-1" d="M15,22.75H9c-5.4321,0-7.75-2.3174-7.75-7.75V9C1.25,3.5677,3.5679,1.25,9,1.25h2a.75.75,0,0,1,0,1.5H9C4.3857,2.75,2.75,4.3856,2.75,9v6c0,4.6143,1.6357,6.25,6.25,6.25h6c4.6143,0,6.25-1.6357,6.25-6.25V13a.75.75,0,1,1,1.5,0v2C22.75,20.433,20.4326,22.75,15,22.75Z"/><path class="cls-1" d="M8.5054,17.6986a2.2138,2.2138,0,0,1-1.5923-.6309,2.26,2.26,0,0,1-.5854-1.9463l.43-3.0073A3.4245,3.4245,0,0,1,7.63,10.3695l7.88-7.88h0C17.5.5,19.52.4974,21.5107,2.49c1.99,1.99,1.99,4.0093,0,6L13.63,16.37a3.51,3.51,0,0,1-1.7432.8721l-3.0107.43A2.6642,2.6642,0,0,1,8.5054,17.6986ZM16.57,3.55,8.69,11.43a2.0043,2.0043,0,0,0-.4478.8936l-.43,3.0127a.7733.7733,0,0,0,.166.6748.7961.7961,0,0,0,.689.1758l3.0063-.4287a2.1055,2.1055,0,0,0,.9038-.457L20.45,7.43c1.1641-1.1646,1.6094-2.27,0-3.8794s-2.7168-1.1626-3.88,0Z"/><path class="cls-1" d="M19.85,9.84a.7591.7591,0,0,1-.2041-.0283,7.9465,7.9465,0,0,1-5.458-5.459.75.75,0,0,1,1.4443-.4053A6.4377,6.4377,0,0,0,20.0537,8.368.75.75,0,0,1,19.85,9.84Z"/></svg>