<?xml version="1.0" encoding="utf-8"?>
<!-- Generator: Adobe Illustrator 21.0.2, SVG Export Plug-In . SVG Version: 6.00 Build 0)  -->
<svg version="1.1" id="Calque_1" xmlns="http://www.w3.org/2000/svg" xmlns:xlink="http://www.w3.org/1999/xlink" x="0px" y="0px"
	 viewBox="0 0 24 24" style="enable-background:new 0 0 24 24;" xml:space="preserve">
<style type="text/css">
	.st0{fill:none;stroke:#EFEFF3;stroke-width:1.5;stroke-linecap:round;stroke-miterlimit:10;}
	.st1{fill:none;stroke:#EFEFF3;stroke-width:1.5;stroke-linecap:round;stroke-linejoin:round;stroke-miterlimit:10;}
	.st2{fill:none;stroke:#EFEFF3;stroke-width:1.5;stroke-miterlimit:10;}
</style>
<path class="st0" d="M12,2.9c-3.3,0-6,2.7-6,6v2.9c0,0.6-0.3,1.5-0.6,2.1l-1.1,1.9c-0.7,1.2-0.2,2.5,1.1,2.9c4.3,1.4,9,1.4,13.3,0
	c1.2-0.4,1.7-1.8,1.1-2.9l-1.1-1.9c-0.3-0.5-0.6-1.5-0.6-2.1V8.9C18,5.6,15.3,2.9,12,2.9z"/>
<path class="st1" d="M13.9,3.2c-0.3-0.1-0.6-0.2-1-0.2c-1-0.1-1.9,0-2.7,0.2c0.3-0.7,1-1.3,1.9-1.3C12.9,1.9,13.6,2.5,13.9,3.2z"/>
<path class="st2" d="M15,19.1c0,1.6-1.4,3-3,3c-0.8,0-1.6-0.3-2.1-0.9C9.4,20.6,9,19.9,9,19.1"/>
</svg>
