<svg id="Calque_1" data-name="Calque 1" xmlns="http://www.w3.org/2000/svg" width="8.4667mm" height="8.4667mm" viewBox="0 0 24.0001 24.0001"><defs><style>.cls-1{fill:#292d32;}</style></defs><title>image</title><path class="cls-1" d="M18.3535,22.75H5.59a4.3843,4.3843,0,0,1-1.9565-.4658A4.3581,4.3581,0,0,1,1.7,16.433l1.7183-3.4482A3.2479,3.2479,0,0,1,5.9048,11.057a3.2274,3.2274,0,0,1,2.812,1.3657l.2231.2842a1.6144,1.6144,0,0,0,.7661.6792,1.4919,1.4919,0,0,0,1.938-.8262l1.93-3.4937a3.3848,3.3848,0,0,1,2.9492-2.09c1.12.0576,2.085.9028,2.7158,2.3794l3.13,7.31a4.3662,4.3662,0,0,1-4.0156,6.085ZM6.1753,12.5428a1.015,1.015,0,0,0-.1157.0063,1.7754,1.7754,0,0,0-1.3,1.1074L3.0415,17.1048a2.857,2.857,0,0,0,1.2661,3.84,2.8844,2.8844,0,0,0,1.2837.3057H18.3525A2.8659,2.8659,0,0,0,20.99,17.2562v-.001l-3.13-7.31C17.4775,9.05,16.9492,8.5,16.4463,8.474c-.5244-.0254-1.0869.4673-1.56,1.32l-1.8911,3.41A2.9627,2.9627,0,0,1,9.145,14.7767,3.01,3.01,0,0,1,7.71,13.5609l-.17-.208A1.8371,1.8371,0,0,0,6.1753,12.5428Z"/><path class="cls-1" d="M6.97,8.75A3.75,3.75,0,1,1,10.72,5,3.7541,3.7541,0,0,1,6.97,8.75Zm0-6A2.25,2.25,0,1,0,9.22,5,2.2525,2.2525,0,0,0,6.97,2.75Z"/></svg>