<svg id="Calque_1" data-name="Calque 1" xmlns="http://www.w3.org/2000/svg" width="8.4667mm" height="8.4667mm" viewBox="0 0 24 24"><defs><style>.cls-1{fill:#292d32;}</style></defs><title>message</title><path class="cls-1" d="M12,22.81a2.2668,2.2668,0,0,1-1.8-.96l-1.5-2a.4669.4669,0,0,0-.2046-.1H8c-4.1675,0-6.75-1.1289-6.75-6.75V8c0-4.416,2.334-6.75,6.75-6.75h8c4.416,0,6.75,2.334,6.75,6.75v5c0,4.416-2.334,6.75-6.75,6.75h-.5a.2627.2627,0,0,0-.2021.1025L13.8,21.85A2.2645,2.2645,0,0,1,12,22.81ZM8,2.75C4.4185,2.75,2.75,4.4183,2.75,8v5c0,4.5205,1.5479,5.25,5.25,5.25h.5a1.8647,1.8647,0,0,1,1.4067.709L11.4,20.95a.6908.6908,0,0,0,1.2,0l1.5-2A1.7651,1.7651,0,0,1,15.5,18.25H16c3.582,0,5.25-1.668,5.25-5.25V8c0-3.5815-1.668-5.25-5.25-5.25Z"/><path class="cls-1" d="M16.0059,12a1,1,0,0,1-.01-2h.01a1,1,0,1,1,0,2Z"/><path class="cls-1" d="M12.0044,12a1,1,0,0,1-.0088-2h.0088a1,1,0,0,1,0,2Z"/><path class="cls-1" d="M8.0034,12a1,1,0,0,1-.0088-2h.0088a1,1,0,1,1,0,2Z"/></svg>