<svg id="Calque_1" data-name="Calque 1" xmlns="http://www.w3.org/2000/svg" width="8.4667mm" height="8.4667mm" viewBox="0 0 24.0001 24.0001"><defs><style>.cls-1{fill:#292d32;}</style></defs><title>send-1</title><path class="cls-1" d="M5.4072,21.7543a3.0806,3.0806,0,0,1-2.2827-.832c-.875-.876-1.5015-2.7529.4849-6.7178L4.48,12.473a1.2869,1.2869,0,0,0-.02-.9775l-.8516-1.7c-1.9849-3.9639-1.3569-5.84-.48-6.7168s2.7529-1.5054,6.7173.481l8.56,4.28C20.53,8.9017,21.7,10.3793,21.7,12s-1.17,3.0981-3.2949,4.1606l-8.56,4.28A10.2869,10.2869,0,0,1,5.4072,21.7543Zm0-18.0093a1.675,1.675,0,0,0-1.2187.394c-.7241.7241-.4395,2.5874.7612,4.9849l.8706,1.7407a2.8273,2.8273,0,0,1,.0186,2.24l-.89,1.7725c-1.2007,2.3975-1.4863,4.2607-.7642,4.9844s2.5879.4385,4.9888-.7627l8.561-4.28C19.3018,14.0355,20.2,13.0082,20.2,12s-.8984-2.0356-2.4648-2.8188l-8.561-4.28,0,0A9.1894,9.1894,0,0,0,5.4077,3.745Z"/><path class="cls-1" d="M10.84,12.75H5.44a.75.75,0,1,1,0-1.5h5.4a.75.75,0,0,1,0,1.5Z"/></svg>