<svg id="Calque_1" data-name="Calque 1" xmlns="http://www.w3.org/2000/svg" width="8.4667mm" height="8.4667mm" viewBox="0 0 24 24"><defs><style>.cls-1{fill:#292d32;}</style></defs><title>send-square</title><path class="cls-1" d="M15,22.75H9c-5.4321,0-7.75-2.3174-7.75-7.75V9C1.25,3.5677,3.5679,1.25,9,1.25h6c5.4326,0,7.75,2.3179,7.75,7.75v6C22.75,20.433,20.4326,22.75,15,22.75Zm-6-20C4.3857,2.75,2.75,4.3856,2.75,9v6c0,4.6143,1.6357,6.25,6.25,6.25h6c4.6143,0,6.25-1.6357,6.25-6.25V9c0-4.6143-1.6357-6.25-6.25-6.25Z"/><path class="cls-1" d="M15,10.26a.7467.7467,0,0,1-.53-.22L12,7.5707,9.53,10.04A.75.75,0,0,1,8.47,8.98l3-3a.75.75,0,0,1,1.0605,0l3,3A.75.75,0,0,1,15,10.26Z"/><path class="cls-1" d="M12,15.26a.75.75,0,0,1-.75-.75v-8a.75.75,0,1,1,1.5,0v8A.75.75,0,0,1,12,15.26Z"/><path class="cls-1" d="M12,18.23a19.6852,19.6852,0,0,1-6.2378-1.0088.75.75,0,1,1,.4756-1.4219,18.3143,18.3143,0,0,0,11.5249,0,.7495.7495,0,1,1,.4746,1.4219A19.68,19.68,0,0,1,12,18.23Z"/></svg>