<svg id="Calque_1" data-name="Calque 1" xmlns="http://www.w3.org/2000/svg" width="8.4667mm" height="8.4667mm" viewBox="0 0 24 24"><defs><style>.cls-1{fill:#292d32;}</style></defs><title>setting-2</title><path class="cls-1" d="M12,15.75A3.75,3.75,0,1,1,15.75,12,3.7545,3.7545,0,0,1,12,15.75Zm0-6A2.25,2.25,0,1,0,14.25,12,2.2525,2.2525,0,0,0,12,9.75Z"/><path class="cls-1" d="M15.2129,22.19a2.4454,2.4454,0,0,1-2.0977-1.1963l-.1143-.1982c-.2925-.51-.6533-.8018-.9907-.8027h-.0015c-.3394,0-.7041.293-1,.8037l-.11.1895a2.4225,2.4225,0,0,1-3.312.8691l-1.7192-.9834a2.65,2.65,0,0,1-.9771-3.6162,1.3327,1.3327,0,0,0,.2-1.2646A1.3277,1.3277,0,0,0,3.9,15.53a2.6529,2.6529,0,0,1-2.65-2.65V11.12A2.6532,2.6532,0,0,1,3.9,8.47a1.3277,1.3277,0,0,0,1.19-.4609A1.3307,1.3307,0,0,0,4.8911,6.746a2.6486,2.6486,0,0,1,.9771-3.6172l1.7295-.99a2.3608,2.3608,0,0,1,1.8257-.2461,2.4328,2.4328,0,0,1,1.4712,1.1133l.1147.1982c.2925.51.6528.8022.9907.8027h.0015c.3394,0,.7041-.2925,1-.8032l.1074-.188a2.4216,2.4216,0,0,1,3.3145-.8706l1.7188.9839a2.6485,2.6485,0,0,1,.9766,3.6162A1.33,1.33,0,0,0,18.92,8.0091a1.3266,1.3266,0,0,0,1.19.4609A2.6528,2.6528,0,0,1,22.76,11.12v1.76A2.6525,2.6525,0,0,1,20.11,15.53a1.3266,1.3266,0,0,0-1.19.4609,1.3321,1.3321,0,0,0,.1982,1.2637,2.6468,2.6468,0,0,1-.9766,3.6172l-1.7285.9893A2.3339,2.3339,0,0,1,15.2129,22.19Zm-3.2041-3.6973h.0049a2.734,2.734,0,0,1,2.2871,1.5547l.1084.1875a.9178.9178,0,0,0,1.248.3311l1.7393-.9961a1.1466,1.1466,0,0,0,.4219-1.5664,2.74,2.74,0,0,1-.1982-2.7617A2.7376,2.7376,0,0,1,20.11,14.03,1.1508,1.1508,0,0,0,21.26,12.88V11.12A1.1508,1.1508,0,0,0,20.11,9.97a2.7379,2.7379,0,0,1-2.49-1.2124,2.7375,2.7375,0,0,1,.2012-2.7637,1.1488,1.1488,0,0,0-.4238-1.5625l-1.73-.9907a.9217.9217,0,0,0-1.2627.333l-.1035.18a2.7508,2.7508,0,0,1-2.2993,1.5532h-.0054A2.7354,2.7354,0,0,1,9.709,3.953l-.1084-.1875a.9331.9331,0,0,0-.564-.4233.8686.8686,0,0,0-.6826.0923L6.6128,4.431a1.1489,1.1489,0,0,0-.4233,1.5635A2.7408,2.7408,0,0,1,6.39,8.7582,2.7392,2.7392,0,0,1,3.9,9.97a1.1509,1.1509,0,0,0-1.15,1.15v1.76A1.1509,1.1509,0,0,0,3.9,14.03a2.7382,2.7382,0,0,1,2.49,1.2119,2.7417,2.7417,0,0,1-.2012,2.7646,1.1491,1.1491,0,0,0,.4238,1.5625l1.73.99a.92.92,0,0,0,1.2627-.333l.1055-.1816A2.7491,2.7491,0,0,1,12.0088,18.4925Z"/></svg>