<svg id="Calque_1" data-name="Calque 1" xmlns="http://www.w3.org/2000/svg" width="8.4667mm" height="8.4667mm" viewBox="0 0 24 24"><defs><style>.cls-1{fill:#292d32;}</style></defs><title>trash</title><path class="cls-1" d="M21.001,6.73c-.0244,0-.05-.001-.0752-.0034a79.467,79.467,0,0,0-15.81-.2l-2.0425.2a.75.75,0,0,1-.1465-1.4932l2.04-.2a80.9826,80.9826,0,0,1,16.1074.2A.75.75,0,0,1,21.001,6.73Z"/><path class="cls-1" d="M15.499,5.72a.7493.7493,0,0,1-.7383-.625l-.22-1.3C14.3994,2.9291,14.37,2.75,13.31,2.75H10.69c-1.0562,0-1.08.1377-1.23,1.0347l-.22,1.31A.75.75,0,0,1,7.76,4.8456l.22-1.31C8.1426,2.5712,8.3647,1.25,10.69,1.25h2.62c2.335,0,2.5615,1.3833,2.7109,2.2988l.2188,1.2964a.75.75,0,0,1-.6143.8647A.7828.7828,0,0,1,15.499,5.72Z"/><path class="cls-1" d="M15.21,22.75H8.79c-3.4932,0-3.6289-1.9336-3.7383-3.4873l-.65-10.0747a.75.75,0,0,1,1.4971-.0967l.65,10.0708C6.6553,20.681,6.6953,21.25,8.79,21.25h6.42c2.0947,0,2.1348-.5693,2.2422-2.0928l.6494-10.0659a.7631.7631,0,0,1,.7959-.7.7492.7492,0,0,1,.7.7969l-.6494,10.07C18.8389,20.8168,18.7031,22.75,15.21,22.75Z"/><path class="cls-1" d="M13.66,17.25H10.33a.75.75,0,0,1,0-1.5h3.33a.75.75,0,0,1,0,1.5Z"/><path class="cls-1" d="M14.5,13.2494h-5a.75.75,0,1,1,0-1.5h5a.75.75,0,1,1,0,1.5Z"/></svg>